<svg id="Layer_1" data-name="Layer 1" xmlns="http://www.w3.org/2000/svg" viewBox="0 0 129 40"><defs><style>.cls-1{fill:#60663f;}.cls-2{fill:#f2a516;}</style></defs><path class="cls-1" d="M34.44,2.88s-1.56,5.86,1.91,7.63a4.86,4.86,0,0,0-2.6.36S31.22,5,34.44,2.88Z"/><path class="cls-2" d="M2.92,2.88S4.47,8.74,1,10.51a4.86,4.86,0,0,1,2.6.36S6.13,5,2.92,2.88Z"/><path class="cls-2" d="M.28,10.87a2.1,2.1,0,0,0-.22,1.41s5.31-1.66,9.07,5.13C9.13,17.41,7.14,10,.28,10.87Z"/><path class="cls-2" d="M.21,12.49s5.86-.89,9.17,6a8.83,8.83,0,0,1-1.23,8A17.43,17.43,0,0,0,3.89,25S8.59,20.67,5,15.64C3.89,14.05.71,12.78.21,12.49Z"/><path class="cls-2" d="M3.64,25.18S.1,27,2.37,29.51c0,0,11.6-2.17,15.11,6.58C17.48,36.09,15.13,27.71,3.64,25.18Z"/><path class="cls-2" d="M2.63,29.8S14,28,18,37.68a5.68,5.68,0,0,1-5.2,1.48S12,31.25,2.63,29.8Z"/><path class="cls-1" d="M38.28,10.87a2.17,2.17,0,0,1,.22,1.41s-5.31-1.66-9.07,5.13C29.43,17.41,31.42,10,38.28,10.87Z"/><path class="cls-1" d="M38.35,12.49s-5.86-.89-9.18,6a8.89,8.89,0,0,0,1.23,8A17.58,17.58,0,0,1,34.67,25s-4.7-4.33-1.13-9.36C34.67,14.05,37.85,12.78,38.35,12.49Z"/><path class="cls-1" d="M34.92,25.18s3.54,1.84,1.26,4.33c0,0-11.59-2.17-15.1,6.58C21.08,36.09,23.43,27.71,34.92,25.18Z"/><path class="cls-1" d="M35.93,29.8S24.55,28,20.54,37.68a5.68,5.68,0,0,0,5.2,1.48S26.54,31.25,35.93,29.8Z"/><path class="cls-2" d="M126.12,31.25a1.94,1.94,0,0,0-.91-.22,1.71,1.71,0,0,0-1.24.47,1.47,1.47,0,0,0-.51,1.12,1.61,1.61,0,0,0,.31.92,7.24,7.24,0,0,0,1.34,1.29,4.72,4.72,0,0,1,.7.66.7.7,0,0,1,.16.43.54.54,0,0,1-.21.42.77.77,0,0,1-.52.18c-.4,0-.75-.28-1.06-.84l-1,.61a2.6,2.6,0,0,0,.86,1,2.09,2.09,0,0,0,1.18.33,2,2,0,0,0,1.41-.51,1.68,1.68,0,0,0,.54-1.28,1.81,1.81,0,0,0-.15-.74,2.52,2.52,0,0,0-.52-.7c-.1-.1-.38-.34-.84-.73a7.07,7.07,0,0,1-.89-.81.48.48,0,0,1-.11-.3.38.38,0,0,1,.15-.29.61.61,0,0,1,.39-.12,1.27,1.27,0,0,1,1,.65l.9-.79A3.15,3.15,0,0,0,126.12,31.25ZM112.74,37.5h1.2V31.19h-1.2Zm-12.16-5.14h.33a2,2,0,0,1,.66.07.53.53,0,0,1,.29.22A.61.61,0,0,1,102,33a.55.55,0,0,1-.22.5,1.47,1.47,0,0,1-.79.15h-.38ZM99.37,37.5h1.21V34.83h.11l1.43,2.67h1.32l-1.5-2.81a1.79,1.79,0,0,0,.9-.63,1.75,1.75,0,0,0,.3-1,1.91,1.91,0,0,0-.27-1,1.55,1.55,0,0,0-.72-.62,4.43,4.43,0,0,0-1.5-.18H99.37ZM87.74,35H86l.85-2.17ZM83.82,37.5h1.26l.51-1.3h2.6l.49,1.3h1.26L87.5,31.19H86.27Zm-12.13,0h1.2V34.66h2V33.5h-2V32.36h2V31.19H71.69ZM60.13,35h-1.7l.85-2.17ZM56.21,37.5h1.25L58,36.2h2.59l.5,1.3h1.26l-2.45-6.31H58.66Zm-10.1-6.25A1.94,1.94,0,0,0,45.2,31,1.73,1.73,0,0,0,44,31.5a1.46,1.46,0,0,0-.5,1.12,1.67,1.67,0,0,0,.3.92,7.24,7.24,0,0,0,1.34,1.29,5.62,5.62,0,0,1,.71.66.76.76,0,0,1,.16.43.52.52,0,0,1-.22.42.77.77,0,0,1-.52.18c-.4,0-.75-.28-1.06-.84l-1,.61a2.6,2.6,0,0,0,.86,1,2.12,2.12,0,0,0,1.18.33,2,2,0,0,0,1.41-.51,1.65,1.65,0,0,0,.55-1.28,1.82,1.82,0,0,0-.16-.74,2.34,2.34,0,0,0-.52-.7c-.1-.1-.38-.34-.84-.73a8,8,0,0,1-.89-.81.48.48,0,0,1-.11-.3.36.36,0,0,1,.16-.29.61.61,0,0,1,.39-.12,1.3,1.3,0,0,1,1,.65L47,32A3.15,3.15,0,0,0,46.11,31.25Z"/><path class="cls-1" d="M124.22,9.11,124,23.35h-.65V8l.2-.08.14,0a.42.42,0,0,1,.4.22,1.23,1.23,0,0,1,.16.5v.09l0,.21Zm-4.4-3.68c.18,1.67.31,3.26.39,4.78s.11,3,.11,4.47v1.09c0,1.65,0,3.31-.11,5s-.16,3.43-.25,5.26a5.54,5.54,0,0,0,1.17.27,10.43,10.43,0,0,0,1.24.07l.8,0,.8-.06.69-.05.68-.08,1.1-.12,1-.08c-.13-1.1-.22-2.22-.27-3.37s-.07-2.32-.07-3.51q0-1.23,0-2.46c0-.81,0-1.63,0-2.45,0-.41,0-.81,0-1.21s0-.8,0-1.21c0-1.1,0-2.19.08-3.28s.06-2.16.06-3.22l-1.14-.08q-.54,0-1.11,0c-.61,0-1.22,0-1.82.06l-1.77.11h-.1l-.09,0-.8,0ZM101.91,7.6q1.09,2.49,2.06,5t1.93,5.1c.09.28.19.56.29.85s.21.57.32.85c.21.56.42,1.12.64,1.68s.43,1.14.66,1.72h.33l5.25-15.08H114l0,.86c-.38,1.12-.76,2.23-1.17,3.32s-.81,2.19-1.22,3.29c-.05.15-.11.3-.17.45s-.11.29-.16.44l-1.35,3.74c-.45,1.24-.88,2.5-1.29,3.76h-1.49L101.29,8V7.88a.2.2,0,0,1,.11-.22.56.56,0,0,1,.31-.09h.12ZM97.67,5.51l-.36.36q.93,2.24,1.77,4.52c.56,1.52,1.11,3,1.65,4.57.06.15.12.3.17.45s.11.3.17.47c.62,1.75,1.25,3.49,1.89,5.24s1.33,3.46,2,5.15h.5l.24,0H106c.24,0,.49,0,.73,0s.49,0,.73,0l.72.06c.23,0,.47,0,.71,0a6.74,6.74,0,0,0,1.11-.09,4.25,4.25,0,0,0,1.08-.3L117.68,6.6l0-1.06h-.4c-.43,0-.85,0-1.27-.06s-.84-.08-1.25-.14l-1.22-.11c-.41,0-.81-.05-1.22-.05h-.64a4.5,4.5,0,0,0-.63.07c-.09.35-.19.71-.29,1.06s-.2.71-.3,1.06l0,.21,0,.21c-.34,1.22-.69,2.43-1.07,3.62a15.93,15.93,0,0,1-1.48,3.34c-.42-1-.81-2.12-1.18-3.19s-.74-2.13-1.1-3.19c-.19-.54-.37-1.07-.54-1.6s-.37-1.06-.55-1.6l-.47,0h-1.08l-.58,0-.66.07-.66.09-1.18.16a11.92,11.92,0,0,1-1.21.07l-.46,0Zm-6.28,13.1a3.25,3.25,0,0,1-.6.2,3.9,3.9,0,0,1-.58.05H90l-.23,0h-.24l-.24,0-.46-.06a3.91,3.91,0,0,0-.49,0l-.29,0-.33,0a4.34,4.34,0,0,1,.35-1.69,17,17,0,0,1,.8-1.6l.33-.6c.1-.19.2-.39.29-.6a6,6,0,0,1,.84,1.22,9.8,9.8,0,0,1,.62,1.37c.09.32.18.62.27.91A6.8,6.8,0,0,1,91.39,18.61ZM90.21,8.49h-.67a.73.73,0,0,0-.33,0A.46.46,0,0,0,89,8.8q-1.65,3.77-2.63,6.13a3.05,3.05,0,0,1-.13.32c0,.1-.09.2-.13.29-.35.88-.7,1.74-1,2.58s-.62,1.59-.85,2.22H95ZM90.74,8l1,2.35c.33.79.66,1.59,1,2.39.75,1.76,1.48,3.54,2.21,5.32s1.44,3.57,2.11,5.35a.57.57,0,0,1-.32.25.37.37,0,0,1-.3-.08c0-.11,0-.23-.08-.36l-.12-.39A4.32,4.32,0,0,0,96,22.4c-.08-.15-.15-.3-.23-.44a12.22,12.22,0,0,0-.61-1.06L83.73,21a1.5,1.5,0,0,0-.27.4c-.1.2-.22.42-.35.66l-.06.14,0,.14c-.11.26-.23.5-.34.74a3.83,3.83,0,0,0-.22.51.94.94,0,0,0-.09.25v0l0-.05-.07-.1-.15,0H82q1.37-3.74,3-7.46c1-2.48,2.13-5,3.21-7.42.08-.15.15-.31.23-.48s.15-.33.22-.5a1.88,1.88,0,0,0,.52.13h1A2.16,2.16,0,0,1,90.74,8ZM93,5.2h-.11l-.57,0h-1l-1,0h-1.5c-.56,0-1.09,0-1.58,0l-1.23-.05c-.41,1.15-.94,2.51-1.58,4.09s-1.31,3.21-2,4.88c-1.1,2.66-2.11,5.14-3,7.46a18.23,18.23,0,0,0-1.36,4.33l0,.14,0,.08,6.17.09c.17,0,.33-.11.47-.44a7.85,7.85,0,0,0,.37-1.1,6,6,0,0,0,.24-.76,2.92,2.92,0,0,1,.21-.57h2.11l.87,0h1.12q.78,0,1.53,0a8.44,8.44,0,0,0,1.33-.13A11.22,11.22,0,0,0,93.16,25a4.76,4.76,0,0,0,.33.63,4.2,4.2,0,0,0,.42.57h6.88a27.25,27.25,0,0,0-1.12-3.72c-.71-2.07-1.52-4.32-2.42-6.73,0-.17-.11-.34-.18-.52s-.13-.35-.21-.51c-.9-2.42-1.74-4.59-2.51-6.53A17.29,17.29,0,0,0,93,5.2ZM72.22,7.57a2.16,2.16,0,0,1-.24.67,6.58,6.58,0,0,1-.4.67l-.19.27-.21.26a9.82,9.82,0,0,0-.71,1.1,2.52,2.52,0,0,0-.35,1.21,5.9,5.9,0,0,0,.36,1.65c.21.56.44,1.11.7,1.67l.23.45c.07.15.15.29.22.44.38.77.72,1.51,1,2.25a5.35,5.35,0,0,1,.48,2.16,3.41,3.41,0,0,1-.54,1.82,5.09,5.09,0,0,1-1.85,1.66l-.28-.28a6,6,0,0,0,1.43-1.73,3.6,3.6,0,0,0,.42-1.64,4.69,4.69,0,0,0-.28-1.6,10.44,10.44,0,0,0-.7-1.58l-.27-.49-.26-.48c-.38-.69-.72-1.38-1-2.07a4.87,4.87,0,0,1-.48-2.09,4.26,4.26,0,0,1,.18-1.2,4.35,4.35,0,0,1,.64-1.22,2,2,0,0,0,.38-.38,2.28,2.28,0,0,0,.26-.46l0-.05,0-.06a5.71,5.71,0,0,1,.46-.65.86.86,0,0,1,.71-.3h.2ZM77.08,6,70.31,4.62l-.07,0-.07.06A21.87,21.87,0,0,0,67.7,7.25a9.84,9.84,0,0,0-1.74,3,4,4,0,0,0-.32.87,3.54,3.54,0,0,0-.1.83,3.76,3.76,0,0,0,.4,1.7,15.63,15.63,0,0,0,.89,1.59l.16.22.15.22a20.24,20.24,0,0,1,1.08,1.79,4.14,4.14,0,0,1,.49,2v.2l0,.09v.1a4.41,4.41,0,0,1-.82,2.27,19.1,19.1,0,0,1-1.57,2l-.28.29-.28.29a10,10,0,0,0,2.05.94c.71.23,1.42.45,2.13.65l.53.11.51.14.55.17.54.17a6.74,6.74,0,0,0,2.42-2,21.5,21.5,0,0,0,1.65-2.69,5.46,5.46,0,0,0,.41-1.06,4.36,4.36,0,0,0,.13-1,4.94,4.94,0,0,0-.38-1.89c-.26-.6-.54-1.2-.86-1.79l-.2-.32c0-.11-.11-.2-.16-.3q-.54-1-1-2a6.06,6.06,0,0,1-.56-2.09A8.93,8.93,0,0,1,74.86,8.9a9.41,9.41,0,0,1,2.22-2.27ZM59.62,22l.14-13.74A.69.69,0,0,1,59.94,8a.58.58,0,0,1,.33-.09h.11V23.85h-.53l-1.11-1.32-1.08-1.3c-.86-1-1.72-2-2.58-2.93s-1.74-1.88-2.64-2.81-1.78-1.9-2.71-2.86-1.87-1.94-2.82-3V23.74l-.11.11-.17,0h-.07l-.1,0h-.17c0-.33,0-.67,0-1v-1c0-.93,0-1.88,0-2.83s0-1.92,0-2.89a4.89,4.89,0,0,1,0-.54V15l-.06-2.38c0-.79,0-1.57,0-2.36V9c0-.42,0-.83,0-1.24A42.52,42.52,0,0,1,49.5,11q1.59,1.68,3.08,3.38c.33.37.67.75,1,1.13s.66.76,1,1.13c.82.95,1.65,1.87,2.48,2.77S58.74,21.19,59.62,22ZM43,5.2c.07,1.58.14,3.2.2,4.85s.09,3.32.11,5c0,1.38,0,2.76,0,4.14s0,2.75,0,4.09v.09l0,.1v.2c0,.13,0,.26,0,.39s0,.26,0,.39v.13l-.06.45a3.4,3.4,0,0,0,0,.45,2.22,2.22,0,0,0,0,.37,2,2,0,0,0,.09.35h6.34l.17-9.11a19,19,0,0,1,2.9,2.77c.87,1,1.73,2.1,2.57,3.19.07.11.16.23.25.35l.28.35,1,1.23c.31.4.64.81,1,1.22.45.06.91.1,1.39.13s1,0,1.42,0,1,0,1.44,0,.92-.07,1.33-.13c0-1.54-.07-3.18-.11-4.93s-.05-3.51-.05-5.3,0-3.55.08-5.31.15-3.44.28-5.06l-.2-.47-2.2.25c-.74.09-1.47.2-2.2.31l-1.11.12L56.73,6c0,.46,0,.94,0,1.42s.06,1,.1,1.45,0,1,.07,1.43,0,1,0,1.44,0,1,0,1.45-.11,1-.2,1.45h-.36l-.23-.27-.22-.26-1.41-1.54c-.48-.52-1-1-1.48-1.56-.86-.89-1.7-1.8-2.5-2.73a19.81,19.81,0,0,1-2.11-2.9l-.78,0-.79-.06-1.16-.07c-.39,0-.77,0-1.17,0h-.75C43.5,5.14,43.24,5.17,43,5.2Z"/></svg>